<?xml version="1.0" encoding="UTF-8" standalone="no"?>
<!DOCTYPE svg PUBLIC "-//W3C//DTD SVG 1.1//EN"
 "http://www.w3.org/Graphics/SVG/1.1/DTD/svg11.dtd">
<!-- Generated by graphviz version 2.40.1 (20161225.0304)
 -->
<!-- Title: dependencies Pages: 1 -->
<svg width="619pt" height="284pt"
 viewBox="0.00 0.00 619.00 284.00" xmlns="http://www.w3.org/2000/svg" xmlns:xlink="http://www.w3.org/1999/xlink">
<g id="graph0" class="graph" transform="scale(1 1) rotate(0) translate(4 280)">
<title>dependencies</title>
<polygon fill="#ffffff" stroke="transparent" points="-4,4 -4,-280 615,-280 615,4 -4,4"/>
<text text-anchor="start" x="284.5091" y="-42.4" font-family="sans-serif" font-weight="bold" font-size="14.00" fill="#000000">Legend</text>
<polygon fill="#ffffb3" stroke="transparent" points="71.5,-10 71.5,-30 91.5,-30 91.5,-10 71.5,-10"/>
<text text-anchor="start" x="95.129" y="-15.4" font-family="sans-serif" font-size="14.00" fill="#000000"> &#160;Declarations</text>
<polygon fill="#8dd3c7" stroke="transparent" points="184.5,-10 184.5,-30 204.5,-30 204.5,-10 184.5,-10"/>
<text text-anchor="start" x="208.2251" y="-15.4" font-family="sans-serif" font-size="14.00" fill="#000000"> &#160;Module</text>
<polygon fill="#80b1d3" stroke="transparent" points="270.5,-10 270.5,-30 290.5,-30 290.5,-10 270.5,-10"/>
<text text-anchor="start" x="294.2812" y="-15.4" font-family="sans-serif" font-size="14.00" fill="#000000"> &#160;Bootstrap</text>
<polygon fill="#fdb462" stroke="transparent" points="367.5,-10 367.5,-30 387.5,-30 387.5,-10 367.5,-10"/>
<text text-anchor="start" x="391.1732" y="-15.4" font-family="sans-serif" font-size="14.00" fill="#000000"> &#160;Providers</text>
<polygon fill="#fb8072" stroke="transparent" points="463.5,-10 463.5,-30 483.5,-30 483.5,-10 463.5,-10"/>
<text text-anchor="start" x="487.2258" y="-15.4" font-family="sans-serif" font-size="14.00" fill="#000000"> &#160;Exports</text>
<g id="clust1" class="cluster">
<title>cluster_ComunModule</title>
<polygon fill="none" stroke="#000000" stroke-dasharray="1,5" points="8,-70 8,-268 603,-268 603,-70 8,-70"/>
</g>
<g id="clust2" class="cluster">
<title>cluster_ComunModule_declarations</title>
<polygon fill="none" stroke="#000000" points="16,-78 16,-130 595,-130 595,-78 16,-78"/>
</g>
<g id="clust8" class="cluster">
<title>cluster_ComunModule_exports</title>
<polygon fill="none" stroke="#000000" points="109,-208 109,-260 519,-260 519,-208 109,-208"/>
</g>
<!-- CabeceraComponent -->
<g id="node1" class="node">
<title>CabeceraComponent</title>
<polygon fill="#ffffb3" stroke="#000000" points="586.9032,-122 453.0968,-122 453.0968,-86 586.9032,-86 586.9032,-122"/>
<text text-anchor="middle" x="520" y="-99.8" font-family="Times,serif" font-size="14.00" fill="#000000">CabeceraComponent</text>
</g>
<!-- ComunModule -->
<g id="node5" class="node">
<title>ComunModule</title>
<polygon fill="#8dd3c7" stroke="#000000" points="347.2772,-187 344.2772,-191 323.2772,-191 320.2772,-187 246.7228,-187 246.7228,-151 347.2772,-151 347.2772,-187"/>
<text text-anchor="middle" x="297" y="-164.8" font-family="Times,serif" font-size="14.00" fill="#000000">ComunModule</text>
</g>
<!-- CabeceraComponent&#45;&gt;ComunModule -->
<g id="edge1" class="edge">
<title>CabeceraComponent&#45;&gt;ComunModule</title>
<path fill="none" stroke="#000000" d="M482.375,-122.0225C482.375,-139.3734 482.375,-163 482.375,-163 482.375,-163 357.6545,-163 357.6545,-163"/>
<polygon fill="#000000" stroke="#000000" points="357.6546,-159.5001 347.6545,-163 357.6545,-166.5001 357.6546,-159.5001"/>
</g>
<!-- HomeComponent -->
<g id="node2" class="node">
<title>HomeComponent</title>
<polygon fill="#ffffb3" stroke="#000000" points="435.5451,-122 320.4549,-122 320.4549,-86 435.5451,-86 435.5451,-122"/>
<text text-anchor="middle" x="378" y="-99.8" font-family="Times,serif" font-size="14.00" fill="#000000">HomeComponent</text>
</g>
<!-- HomeComponent&#45;&gt;ComunModule -->
<g id="edge2" class="edge">
<title>HomeComponent&#45;&gt;ComunModule</title>
<path fill="none" stroke="#000000" d="M333.8082,-122.1061C333.8082,-122.1061 333.8082,-140.991 333.8082,-140.991"/>
<polygon fill="#000000" stroke="#000000" points="330.3083,-140.9909 333.8082,-150.991 337.3083,-140.991 330.3083,-140.9909"/>
</g>
<!-- NoDisponibleComponent -->
<g id="node3" class="node">
<title>NoDisponibleComponent</title>
<polygon fill="#ffffb3" stroke="#000000" points="301.8766,-122 142.1234,-122 142.1234,-86 301.8766,-86 301.8766,-122"/>
<text text-anchor="middle" x="222" y="-99.8" font-family="Times,serif" font-size="14.00" fill="#000000">NoDisponibleComponent</text>
</g>
<!-- NoDisponibleComponent&#45;&gt;ComunModule -->
<g id="edge3" class="edge">
<title>NoDisponibleComponent&#45;&gt;ComunModule</title>
<path fill="none" stroke="#000000" d="M274.2749,-122.1061C274.2749,-122.1061 274.2749,-140.991 274.2749,-140.991"/>
<polygon fill="#000000" stroke="#000000" points="270.775,-140.9909 274.2749,-150.991 277.775,-140.991 270.775,-140.9909"/>
</g>
<!-- PieComponent -->
<g id="node4" class="node">
<title>PieComponent</title>
<polygon fill="#ffffb3" stroke="#000000" points="123.7204,-122 24.2796,-122 24.2796,-86 123.7204,-86 123.7204,-122"/>
<text text-anchor="middle" x="74" y="-99.8" font-family="Times,serif" font-size="14.00" fill="#000000">PieComponent</text>
</g>
<!-- PieComponent&#45;&gt;ComunModule -->
<g id="edge4" class="edge">
<title>PieComponent&#45;&gt;ComunModule</title>
<path fill="none" stroke="#000000" d="M70.5149,-122.0225C70.5149,-139.3734 70.5149,-163 70.5149,-163 70.5149,-163 236.4542,-163 236.4542,-163"/>
<polygon fill="#000000" stroke="#000000" points="236.4543,-166.5001 246.4542,-163 236.4542,-159.5001 236.4543,-166.5001"/>
</g>
<!-- CabeceraComponent  -->
<g id="node6" class="node">
<title>CabeceraComponent </title>
<polygon fill="#fb8072" stroke="#000000" points="511.4026,-252 374.5974,-252 374.5974,-216 511.4026,-216 511.4026,-252"/>
<text text-anchor="middle" x="443" y="-229.8" font-family="Times,serif" font-size="14.00" fill="#000000">CabeceraComponent </text>
</g>
<!-- ComunModule&#45;&gt;CabeceraComponent  -->
<g id="edge5" class="edge">
<title>ComunModule&#45;&gt;CabeceraComponent </title>
<path fill="none" stroke="#000000" stroke-dasharray="5,2" d="M347.2805,-175C375.5259,-175 405.1604,-175 405.1604,-175 405.1604,-175 405.1604,-205.9775 405.1604,-205.9775"/>
<polygon fill="#000000" stroke="#000000" points="401.6605,-205.9774 405.1604,-215.9775 408.6605,-205.9775 401.6605,-205.9774"/>
</g>
<!-- HomeComponent  -->
<g id="node7" class="node">
<title>HomeComponent </title>
<polygon fill="#fb8072" stroke="#000000" points="356.5442,-252 237.4558,-252 237.4558,-216 356.5442,-216 356.5442,-252"/>
<text text-anchor="middle" x="297" y="-229.8" font-family="Times,serif" font-size="14.00" fill="#000000">HomeComponent </text>
</g>
<!-- ComunModule&#45;&gt;HomeComponent  -->
<g id="edge6" class="edge">
<title>ComunModule&#45;&gt;HomeComponent </title>
<path fill="none" stroke="#000000" stroke-dasharray="5,2" d="M297,-187.1061C297,-187.1061 297,-205.991 297,-205.991"/>
<polygon fill="#000000" stroke="#000000" points="293.5001,-205.9909 297,-215.991 300.5001,-205.991 293.5001,-205.9909"/>
</g>
<!-- PieComponent  -->
<g id="node8" class="node">
<title>PieComponent </title>
<polygon fill="#fb8072" stroke="#000000" points="219.2206,-252 116.7794,-252 116.7794,-216 219.2206,-216 219.2206,-252"/>
<text text-anchor="middle" x="168" y="-229.8" font-family="Times,serif" font-size="14.00" fill="#000000">PieComponent </text>
</g>
<!-- ComunModule&#45;&gt;PieComponent  -->
<g id="edge7" class="edge">
<title>ComunModule&#45;&gt;PieComponent </title>
<path fill="none" stroke="#000000" stroke-dasharray="5,2" d="M246.6703,-175C215.2418,-175 180.7109,-175 180.7109,-175 180.7109,-175 180.7109,-205.9775 180.7109,-205.9775"/>
<polygon fill="#000000" stroke="#000000" points="177.211,-205.9774 180.7109,-215.9775 184.211,-205.9775 177.211,-205.9774"/>
</g>
</g>
</svg>
