<?xml version="1.0" encoding="UTF-8" standalone="no"?>
<!DOCTYPE svg PUBLIC "-//W3C//DTD SVG 1.1//EN"
 "http://www.w3.org/Graphics/SVG/1.1/DTD/svg11.dtd">
<!-- Generated by graphviz version 2.40.1 (20161225.0304)
 -->
<!-- Title: dependencies Pages: 1 -->
<svg width="1056pt" height="284pt"
 viewBox="0.00 0.00 1056.00 284.00" xmlns="http://www.w3.org/2000/svg" xmlns:xlink="http://www.w3.org/1999/xlink">
<g id="graph0" class="graph" transform="scale(1 1) rotate(0) translate(4 280)">
<title>dependencies</title>
<polygon fill="#ffffff" stroke="transparent" points="-4,4 -4,-280 1052,-280 1052,4 -4,4"/>
<text text-anchor="start" x="503.0091" y="-42.4" font-family="sans-serif" font-weight="bold" font-size="14.00" fill="#000000">Legend</text>
<polygon fill="#ffffb3" stroke="transparent" points="290,-10 290,-30 310,-30 310,-10 290,-10"/>
<text text-anchor="start" x="313.629" y="-15.4" font-family="sans-serif" font-size="14.00" fill="#000000"> &#160;Declarations</text>
<polygon fill="#8dd3c7" stroke="transparent" points="403,-10 403,-30 423,-30 423,-10 403,-10"/>
<text text-anchor="start" x="426.7251" y="-15.4" font-family="sans-serif" font-size="14.00" fill="#000000"> &#160;Module</text>
<polygon fill="#80b1d3" stroke="transparent" points="489,-10 489,-30 509,-30 509,-10 489,-10"/>
<text text-anchor="start" x="512.7812" y="-15.4" font-family="sans-serif" font-size="14.00" fill="#000000"> &#160;Bootstrap</text>
<polygon fill="#fdb462" stroke="transparent" points="586,-10 586,-30 606,-30 606,-10 586,-10"/>
<text text-anchor="start" x="609.6732" y="-15.4" font-family="sans-serif" font-size="14.00" fill="#000000"> &#160;Providers</text>
<polygon fill="#fb8072" stroke="transparent" points="682,-10 682,-30 702,-30 702,-10 682,-10"/>
<text text-anchor="start" x="705.7258" y="-15.4" font-family="sans-serif" font-size="14.00" fill="#000000"> &#160;Exports</text>
<g id="clust1" class="cluster">
<title>cluster_CarterasModule</title>
<polygon fill="none" stroke="#000000" stroke-dasharray="1,5" points="8,-70 8,-268 1040,-268 1040,-70 8,-70"/>
</g>
<g id="clust2" class="cluster">
<title>cluster_CarterasModule_declarations</title>
<polygon fill="none" stroke="#000000" points="140,-78 140,-130 1032,-130 1032,-78 140,-78"/>
</g>
<g id="clust8" class="cluster">
<title>cluster_CarterasModule_imports</title>
<polygon fill="none" stroke="#000000" points="16,-78 16,-130 132,-130 132,-78 16,-78"/>
</g>
<g id="clust9" class="cluster">
<title>cluster_CarterasModule_exports</title>
<polygon fill="none" stroke="#000000" points="404,-208 404,-260 580,-260 580,-208 404,-208"/>
</g>
<!-- CarterasDetalleComponent -->
<g id="node1" class="node">
<title>CarterasDetalleComponent</title>
<polygon fill="#ffffb3" stroke="#000000" points="1024.3919,-122 855.6081,-122 855.6081,-86 1024.3919,-86 1024.3919,-122"/>
<text text-anchor="middle" x="940" y="-99.8" font-family="Times,serif" font-size="14.00" fill="#000000">CarterasDetalleComponent</text>
</g>
<!-- CarterasModule -->
<g id="node6" class="node">
<title>CarterasModule</title>
<polygon fill="#8dd3c7" stroke="#000000" points="545.1868,-187 542.1868,-191 521.1868,-191 518.1868,-187 438.8132,-187 438.8132,-151 545.1868,-151 545.1868,-187"/>
<text text-anchor="middle" x="492" y="-164.8" font-family="Times,serif" font-size="14.00" fill="#000000">CarterasModule</text>
</g>
<!-- CarterasDetalleComponent&#45;&gt;CarterasModule -->
<g id="edge1" class="edge">
<title>CarterasDetalleComponent&#45;&gt;CarterasModule</title>
<path fill="none" stroke="#000000" d="M940,-122.2843C940,-143.3211 940,-175 940,-175 940,-175 555.1507,-175 555.1507,-175"/>
<polygon fill="#000000" stroke="#000000" points="555.1508,-171.5001 545.1507,-175 555.1507,-178.5001 555.1508,-171.5001"/>
</g>
<!-- CarterasFormComponent -->
<g id="node2" class="node">
<title>CarterasFormComponent</title>
<polygon fill="#ffffb3" stroke="#000000" points="838.3033,-122 679.6967,-122 679.6967,-86 838.3033,-86 838.3033,-122"/>
<text text-anchor="middle" x="759" y="-99.8" font-family="Times,serif" font-size="14.00" fill="#000000">CarterasFormComponent</text>
</g>
<!-- CarterasFormComponent&#45;&gt;CarterasModule -->
<g id="edge2" class="edge">
<title>CarterasFormComponent&#45;&gt;CarterasModule</title>
<path fill="none" stroke="#000000" d="M759,-122.0225C759,-139.3734 759,-163 759,-163 759,-163 555.3897,-163 555.3897,-163"/>
<polygon fill="#000000" stroke="#000000" points="555.3898,-159.5001 545.3897,-163 555.3897,-166.5001 555.3898,-159.5001"/>
</g>
<!-- CarterasHomeComponent -->
<g id="node3" class="node">
<title>CarterasHomeComponent</title>
<polygon fill="#ffffb3" stroke="#000000" points="662.1811,-122 499.8189,-122 499.8189,-86 662.1811,-86 662.1811,-122"/>
<text text-anchor="middle" x="581" y="-99.8" font-family="Times,serif" font-size="14.00" fill="#000000">CarterasHomeComponent</text>
</g>
<!-- CarterasHomeComponent&#45;&gt;CarterasModule -->
<g id="edge3" class="edge">
<title>CarterasHomeComponent&#45;&gt;CarterasModule</title>
<path fill="none" stroke="#000000" d="M522.5014,-122.1061C522.5014,-122.1061 522.5014,-140.991 522.5014,-140.991"/>
<polygon fill="#000000" stroke="#000000" points="519.0015,-140.9909 522.5014,-150.991 526.0015,-140.991 519.0015,-140.9909"/>
</g>
<!-- CarterasListaComponent -->
<g id="node4" class="node">
<title>CarterasListaComponent</title>
<polygon fill="#ffffb3" stroke="#000000" points="481.9622,-122 326.0378,-122 326.0378,-86 481.9622,-86 481.9622,-122"/>
<text text-anchor="middle" x="404" y="-99.8" font-family="Times,serif" font-size="14.00" fill="#000000">CarterasListaComponent</text>
</g>
<!-- CarterasListaComponent&#45;&gt;CarterasModule -->
<g id="edge4" class="edge">
<title>CarterasListaComponent&#45;&gt;CarterasModule</title>
<path fill="none" stroke="#000000" d="M460.4439,-122.1061C460.4439,-122.1061 460.4439,-140.991 460.4439,-140.991"/>
<polygon fill="#000000" stroke="#000000" points="456.944,-140.9909 460.4439,-150.991 463.944,-140.991 456.944,-140.9909"/>
</g>
<!-- CarterasMenuComponent -->
<g id="node5" class="node">
<title>CarterasMenuComponent</title>
<polygon fill="#ffffb3" stroke="#000000" points="308.1288,-122 147.8712,-122 147.8712,-86 308.1288,-86 308.1288,-122"/>
<text text-anchor="middle" x="228" y="-99.8" font-family="Times,serif" font-size="14.00" fill="#000000">CarterasMenuComponent</text>
</g>
<!-- CarterasMenuComponent&#45;&gt;CarterasModule -->
<g id="edge5" class="edge">
<title>CarterasMenuComponent&#45;&gt;CarterasModule</title>
<path fill="none" stroke="#000000" d="M228,-122.0225C228,-139.3734 228,-163 228,-163 228,-163 428.8932,-163 428.8932,-163"/>
<polygon fill="#000000" stroke="#000000" points="428.8933,-166.5001 438.8932,-163 428.8932,-159.5001 428.8933,-166.5001"/>
</g>
<!-- CarterasListaComponent  -->
<g id="node8" class="node">
<title>CarterasListaComponent </title>
<polygon fill="#fb8072" stroke="#000000" points="571.9629,-252 412.0371,-252 412.0371,-216 571.9629,-216 571.9629,-252"/>
<text text-anchor="middle" x="492" y="-229.8" font-family="Times,serif" font-size="14.00" fill="#000000">CarterasListaComponent </text>
</g>
<!-- CarterasModule&#45;&gt;CarterasListaComponent  -->
<g id="edge7" class="edge">
<title>CarterasModule&#45;&gt;CarterasListaComponent </title>
<path fill="none" stroke="#000000" stroke-dasharray="5,2" d="M492,-187.1061C492,-187.1061 492,-205.991 492,-205.991"/>
<polygon fill="#000000" stroke="#000000" points="488.5001,-205.9909 492,-215.991 495.5001,-205.991 488.5001,-205.9909"/>
</g>
<!-- ComunModule -->
<g id="node7" class="node">
<title>ComunModule</title>
<polygon fill="#8dd3c7" stroke="#000000" points="124.2772,-122 121.2772,-126 100.2772,-126 97.2772,-122 23.7228,-122 23.7228,-86 124.2772,-86 124.2772,-122"/>
<text text-anchor="middle" x="74" y="-99.8" font-family="Times,serif" font-size="14.00" fill="#000000">ComunModule</text>
</g>
<!-- ComunModule&#45;&gt;CarterasModule -->
<g id="edge6" class="edge">
<title>ComunModule&#45;&gt;CarterasModule</title>
<path fill="none" stroke="#000000" d="M74,-122.2843C74,-143.3211 74,-175 74,-175 74,-175 428.6354,-175 428.6354,-175"/>
<polygon fill="#000000" stroke="#000000" points="428.6355,-178.5001 438.6354,-175 428.6354,-171.5001 428.6355,-178.5001"/>
</g>
</g>
</svg>
