<?xml version="1.0" encoding="UTF-8" standalone="no"?>
<!DOCTYPE svg PUBLIC "-//W3C//DTD SVG 1.1//EN"
 "http://www.w3.org/Graphics/SVG/1.1/DTD/svg11.dtd">
<!-- Generated by graphviz version 2.40.1 (20161225.0304)
 -->
<!-- Title: dependencies Pages: 1 -->
<svg width="1753pt" height="363pt"
 viewBox="0.00 0.00 1753.00 363.00" xmlns="http://www.w3.org/2000/svg" xmlns:xlink="http://www.w3.org/1999/xlink">
<g id="graph0" class="graph" transform="scale(1 1) rotate(0) translate(4 359)">
<title>dependencies</title>
<polygon fill="#ffffff" stroke="transparent" points="-4,4 -4,-359 1749,-359 1749,4 -4,4"/>
<text text-anchor="start" x="851.5091" y="-42.4" font-family="sans-serif" font-weight="bold" font-size="14.00" fill="#000000">Legend</text>
<polygon fill="#ffffb3" stroke="transparent" points="638.5,-10 638.5,-30 658.5,-30 658.5,-10 638.5,-10"/>
<text text-anchor="start" x="662.129" y="-15.4" font-family="sans-serif" font-size="14.00" fill="#000000"> &#160;Declarations</text>
<polygon fill="#8dd3c7" stroke="transparent" points="751.5,-10 751.5,-30 771.5,-30 771.5,-10 751.5,-10"/>
<text text-anchor="start" x="775.2251" y="-15.4" font-family="sans-serif" font-size="14.00" fill="#000000"> &#160;Module</text>
<polygon fill="#80b1d3" stroke="transparent" points="837.5,-10 837.5,-30 857.5,-30 857.5,-10 837.5,-10"/>
<text text-anchor="start" x="861.2812" y="-15.4" font-family="sans-serif" font-size="14.00" fill="#000000"> &#160;Bootstrap</text>
<polygon fill="#fdb462" stroke="transparent" points="934.5,-10 934.5,-30 954.5,-30 954.5,-10 934.5,-10"/>
<text text-anchor="start" x="958.1732" y="-15.4" font-family="sans-serif" font-size="14.00" fill="#000000"> &#160;Providers</text>
<polygon fill="#fb8072" stroke="transparent" points="1030.5,-10 1030.5,-30 1050.5,-30 1050.5,-10 1030.5,-10"/>
<text text-anchor="start" x="1054.2258" y="-15.4" font-family="sans-serif" font-size="14.00" fill="#000000"> &#160;Exports</text>
<g id="clust1" class="cluster">
<title>cluster_AppModule</title>
<polygon fill="none" stroke="#000000" stroke-dasharray="1,5" points="924,-146 924,-347 1186,-347 1186,-146 924,-146"/>
</g>
<g id="clust2" class="cluster">
<title>cluster_AppModule_declarations</title>
<polygon fill="none" stroke="#000000" points="1056,-154 1056,-206 1178,-206 1178,-154 1056,-154"/>
</g>
<g id="clust4" class="cluster">
<title>cluster_AppModule_imports</title>
<polygon fill="none" stroke="#000000" points="932,-154 932,-206 1048,-206 1048,-154 932,-154"/>
</g>
<g id="clust6" class="cluster">
<title>cluster_AppModule_bootstrap</title>
<polygon fill="none" stroke="#000000" points="993,-287 993,-339 1117,-339 1117,-287 993,-287"/>
</g>
<g id="clust8" class="cluster">
<title>cluster_CarterasModule</title>
<polygon fill="none" stroke="#000000" stroke-dasharray="1,5" points="8,-146 8,-347 916,-347 916,-146 8,-146"/>
</g>
<g id="clust9" class="cluster">
<title>cluster_CarterasModule_declarations</title>
<polygon fill="none" stroke="#000000" points="16,-154 16,-206 908,-206 908,-154 16,-154"/>
</g>
<g id="clust16" class="cluster">
<title>cluster_CarterasModule_exports</title>
<polygon fill="none" stroke="#000000" points="458,-287 458,-339 634,-339 634,-287 458,-287"/>
</g>
<g id="clust19" class="cluster">
<title>cluster_ComponentesReusablesModule</title>
<polygon fill="none" stroke="#000000" stroke-dasharray="1,5" points="1527,-70 1527,-279 1737,-279 1737,-70 1527,-70"/>
</g>
<g id="clust20" class="cluster">
<title>cluster_ComponentesReusablesModule_declarations</title>
<polygon fill="none" stroke="#000000" points="1560,-78 1560,-130 1704,-130 1704,-78 1560,-78"/>
</g>
<g id="clust23" class="cluster">
<title>cluster_ComponentesReusablesModule_exports</title>
<polygon fill="none" stroke="#000000" points="1558,-219 1558,-271 1706,-271 1706,-219 1558,-219"/>
</g>
<g id="clust26" class="cluster">
<title>cluster_ComunModule</title>
<polygon fill="none" stroke="#000000" stroke-dasharray="1,5" points="506,-70 506,-138 1519,-138 1519,-70 506,-70"/>
</g>
<g id="clust27" class="cluster">
<title>cluster_ComunModule_declarations</title>
<polygon fill="none" stroke="#000000" points="932,-78 932,-130 1511,-130 1511,-78 932,-78"/>
</g>
<g id="clust33" class="cluster">
<title>cluster_ComunModule_exports</title>
<polygon fill="none" stroke="#000000" points="514,-78 514,-130 924,-130 924,-78 514,-78"/>
</g>
<!-- AppComponent -->
<g id="node1" class="node">
<title>AppComponent</title>
<polygon fill="#ffffb3" stroke="#000000" points="1169.9399,-198 1064.0601,-198 1064.0601,-162 1169.9399,-162 1169.9399,-198"/>
<text text-anchor="middle" x="1117" y="-175.8" font-family="Times,serif" font-size="14.00" fill="#000000">AppComponent</text>
</g>
<!-- AppModule -->
<g id="node2" class="node">
<title>AppModule</title>
<polygon fill="#8dd3c7" stroke="#000000" points="1096.6571,-263 1093.6571,-267 1072.6571,-267 1069.6571,-263 1013.3429,-263 1013.3429,-227 1096.6571,-227 1096.6571,-263"/>
<text text-anchor="middle" x="1055" y="-240.8" font-family="Times,serif" font-size="14.00" fill="#000000">AppModule</text>
</g>
<!-- AppComponent&#45;&gt;AppModule -->
<g id="edge1" class="edge">
<title>AppComponent&#45;&gt;AppModule</title>
<path fill="none" stroke="#000000" d="M1080.5543,-198.1061C1080.5543,-198.1061 1080.5543,-216.991 1080.5543,-216.991"/>
<polygon fill="#000000" stroke="#000000" points="1077.0544,-216.9909 1080.5543,-226.991 1084.0544,-216.991 1077.0544,-216.9909"/>
</g>
<!-- AppComponent  -->
<g id="node4" class="node">
<title>AppComponent </title>
<polygon fill="#80b1d3" stroke="#000000" points="1109.439,-331 1000.561,-331 1000.561,-295 1109.439,-295 1109.439,-331"/>
<text text-anchor="middle" x="1055" y="-308.8" font-family="Times,serif" font-size="14.00" fill="#000000">AppComponent </text>
</g>
<!-- AppModule&#45;&gt;AppComponent  -->
<g id="edge3" class="edge">
<title>AppModule&#45;&gt;AppComponent </title>
<path fill="none" stroke="#000000" stroke-dasharray="1,5" d="M1055,-263.2228C1055,-263.2228 1055,-284.7269 1055,-284.7269"/>
<polygon fill="#000000" stroke="#000000" points="1051.5001,-284.7269 1055,-294.7269 1058.5001,-284.727 1051.5001,-284.7269"/>
</g>
<!-- ComunModule -->
<g id="node3" class="node">
<title>ComunModule</title>
<polygon fill="#8dd3c7" stroke="#000000" points="1040.2772,-198 1037.2772,-202 1016.2772,-202 1013.2772,-198 939.7228,-198 939.7228,-162 1040.2772,-162 1040.2772,-198"/>
<text text-anchor="middle" x="990" y="-175.8" font-family="Times,serif" font-size="14.00" fill="#000000">ComunModule</text>
</g>
<!-- ComunModule&#45;&gt;AppModule -->
<g id="edge2" class="edge">
<title>ComunModule&#45;&gt;AppModule</title>
<path fill="none" stroke="#000000" d="M1026.7802,-198.1061C1026.7802,-198.1061 1026.7802,-216.991 1026.7802,-216.991"/>
<polygon fill="#000000" stroke="#000000" points="1023.2802,-216.9909 1026.7802,-226.991 1030.2802,-216.991 1023.2802,-216.9909"/>
</g>
<!-- CarterasModule -->
<g id="node10" class="node">
<title>CarterasModule</title>
<polygon fill="#8dd3c7" stroke="#000000" points="599.1868,-263 596.1868,-267 575.1868,-267 572.1868,-263 492.8132,-263 492.8132,-227 599.1868,-227 599.1868,-263"/>
<text text-anchor="middle" x="546" y="-240.8" font-family="Times,serif" font-size="14.00" fill="#000000">CarterasModule</text>
</g>
<!-- ComunModule&#45;&gt;CarterasModule -->
<g id="edge9" class="edge">
<title>ComunModule&#45;&gt;CarterasModule</title>
<path fill="none" stroke="#000000" d="M970.071,-198.2843C970.071,-219.3211 970.071,-251 970.071,-251 970.071,-251 609.2795,-251 609.2795,-251"/>
<polygon fill="#000000" stroke="#000000" points="609.2795,-247.5001 599.2795,-251 609.2795,-254.5001 609.2795,-247.5001"/>
</g>
<!-- CabeceraComponent  -->
<g id="node19" class="node">
<title>CabeceraComponent </title>
<polygon fill="#fb8072" stroke="#000000" points="916.4026,-122 779.5974,-122 779.5974,-86 916.4026,-86 916.4026,-122"/>
<text text-anchor="middle" x="848" y="-99.8" font-family="Times,serif" font-size="14.00" fill="#000000">CabeceraComponent </text>
</g>
<!-- ComunModule&#45;&gt;CabeceraComponent  -->
<g id="edge17" class="edge">
<title>ComunModule&#45;&gt;CabeceraComponent </title>
<path fill="none" stroke="#000000" stroke-dasharray="5,2" d="M939.6682,-180C922.8602,-180 908.3235,-180 908.3235,-180 908.3235,-180 908.3235,-132.0109 908.3235,-132.0109"/>
<polygon fill="#000000" stroke="#000000" points="911.8236,-132.0109 908.3235,-122.0109 904.8236,-132.011 911.8236,-132.0109"/>
</g>
<!-- HomeComponent  -->
<g id="node20" class="node">
<title>HomeComponent </title>
<polygon fill="#fb8072" stroke="#000000" points="761.5442,-122 642.4558,-122 642.4558,-86 761.5442,-86 761.5442,-122"/>
<text text-anchor="middle" x="702" y="-99.8" font-family="Times,serif" font-size="14.00" fill="#000000">HomeComponent </text>
</g>
<!-- ComunModule&#45;&gt;HomeComponent  -->
<g id="edge18" class="edge">
<title>ComunModule&#45;&gt;HomeComponent </title>
<path fill="none" stroke="#000000" stroke-dasharray="5,2" d="M973.4633,-161.8056C973.4633,-153.7218 973.4633,-146 973.4633,-146 973.4633,-146 746.6632,-146 746.6632,-146 746.6632,-146 746.6632,-132.0555 746.6632,-132.0555"/>
<polygon fill="#000000" stroke="#000000" points="750.1633,-132.0555 746.6632,-122.0555 743.1633,-132.0556 750.1633,-132.0555"/>
</g>
<!-- PieComponent  -->
<g id="node21" class="node">
<title>PieComponent </title>
<polygon fill="#fb8072" stroke="#000000" points="624.2206,-122 521.7794,-122 521.7794,-86 624.2206,-86 624.2206,-122"/>
<text text-anchor="middle" x="573" y="-99.8" font-family="Times,serif" font-size="14.00" fill="#000000">PieComponent </text>
</g>
<!-- ComunModule&#45;&gt;PieComponent  -->
<g id="edge19" class="edge">
<title>ComunModule&#45;&gt;PieComponent </title>
<path fill="none" stroke="#000000" stroke-dasharray="5,2" d="M956.9266,-161.9421C956.9266,-157.5055 956.9266,-154 956.9266,-154 956.9266,-154 590.1043,-154 590.1043,-154 590.1043,-154 590.1043,-132.0511 590.1043,-132.0511"/>
<polygon fill="#000000" stroke="#000000" points="593.6044,-132.0511 590.1043,-122.0511 586.6044,-132.0512 593.6044,-132.0511"/>
</g>
<!-- CarterasDetalleComponent -->
<g id="node5" class="node">
<title>CarterasDetalleComponent</title>
<polygon fill="#ffffb3" stroke="#000000" points="900.3919,-198 731.6081,-198 731.6081,-162 900.3919,-162 900.3919,-198"/>
<text text-anchor="middle" x="816" y="-175.8" font-family="Times,serif" font-size="14.00" fill="#000000">CarterasDetalleComponent</text>
</g>
<!-- CarterasDetalleComponent&#45;&gt;CarterasModule -->
<g id="edge4" class="edge">
<title>CarterasDetalleComponent&#45;&gt;CarterasModule</title>
<path fill="none" stroke="#000000" d="M816,-198.0225C816,-215.3734 816,-239 816,-239 816,-239 609.3433,-239 609.3433,-239"/>
<polygon fill="#000000" stroke="#000000" points="609.3433,-235.5001 599.3433,-239 609.3433,-242.5001 609.3433,-235.5001"/>
</g>
<!-- CarterasFormComponent -->
<g id="node6" class="node">
<title>CarterasFormComponent</title>
<polygon fill="#ffffb3" stroke="#000000" points="714.3033,-198 555.6967,-198 555.6967,-162 714.3033,-162 714.3033,-198"/>
<text text-anchor="middle" x="635" y="-175.8" font-family="Times,serif" font-size="14.00" fill="#000000">CarterasFormComponent</text>
</g>
<!-- CarterasFormComponent&#45;&gt;CarterasModule -->
<g id="edge5" class="edge">
<title>CarterasFormComponent&#45;&gt;CarterasModule</title>
<path fill="none" stroke="#000000" d="M577.4709,-198.1061C577.4709,-198.1061 577.4709,-216.991 577.4709,-216.991"/>
<polygon fill="#000000" stroke="#000000" points="573.971,-216.9909 577.4709,-226.991 580.971,-216.991 573.971,-216.9909"/>
</g>
<!-- CarterasHomeComponent -->
<g id="node7" class="node">
<title>CarterasHomeComponent</title>
<polygon fill="#ffffb3" stroke="#000000" points="538.1811,-198 375.8189,-198 375.8189,-162 538.1811,-162 538.1811,-198"/>
<text text-anchor="middle" x="457" y="-175.8" font-family="Times,serif" font-size="14.00" fill="#000000">CarterasHomeComponent</text>
</g>
<!-- CarterasHomeComponent&#45;&gt;CarterasModule -->
<g id="edge6" class="edge">
<title>CarterasHomeComponent&#45;&gt;CarterasModule</title>
<path fill="none" stroke="#000000" d="M515.4986,-198.1061C515.4986,-198.1061 515.4986,-216.991 515.4986,-216.991"/>
<polygon fill="#000000" stroke="#000000" points="511.9987,-216.9909 515.4986,-226.991 518.9987,-216.991 511.9987,-216.9909"/>
</g>
<!-- CarterasListaComponent -->
<g id="node8" class="node">
<title>CarterasListaComponent</title>
<polygon fill="#ffffb3" stroke="#000000" points="357.9622,-198 202.0378,-198 202.0378,-162 357.9622,-162 357.9622,-198"/>
<text text-anchor="middle" x="280" y="-175.8" font-family="Times,serif" font-size="14.00" fill="#000000">CarterasListaComponent</text>
</g>
<!-- CarterasListaComponent&#45;&gt;CarterasModule -->
<g id="edge7" class="edge">
<title>CarterasListaComponent&#45;&gt;CarterasModule</title>
<path fill="none" stroke="#000000" d="M280,-198.0225C280,-215.3734 280,-239 280,-239 280,-239 482.8102,-239 482.8102,-239"/>
<polygon fill="#000000" stroke="#000000" points="482.8103,-242.5001 492.8102,-239 482.8102,-235.5001 482.8103,-242.5001"/>
</g>
<!-- CarterasMenuComponent -->
<g id="node9" class="node">
<title>CarterasMenuComponent</title>
<polygon fill="#ffffb3" stroke="#000000" points="184.1288,-198 23.8712,-198 23.8712,-162 184.1288,-162 184.1288,-198"/>
<text text-anchor="middle" x="104" y="-175.8" font-family="Times,serif" font-size="14.00" fill="#000000">CarterasMenuComponent</text>
</g>
<!-- CarterasMenuComponent&#45;&gt;CarterasModule -->
<g id="edge8" class="edge">
<title>CarterasMenuComponent&#45;&gt;CarterasModule</title>
<path fill="none" stroke="#000000" d="M104,-198.2843C104,-219.3211 104,-251 104,-251 104,-251 482.6845,-251 482.6845,-251"/>
<polygon fill="#000000" stroke="#000000" points="482.6845,-254.5001 492.6845,-251 482.6844,-247.5001 482.6845,-254.5001"/>
</g>
<!-- CarterasListaComponent  -->
<g id="node11" class="node">
<title>CarterasListaComponent </title>
<polygon fill="#fb8072" stroke="#000000" points="625.9629,-331 466.0371,-331 466.0371,-295 625.9629,-295 625.9629,-331"/>
<text text-anchor="middle" x="546" y="-308.8" font-family="Times,serif" font-size="14.00" fill="#000000">CarterasListaComponent </text>
</g>
<!-- CarterasModule&#45;&gt;CarterasListaComponent  -->
<g id="edge10" class="edge">
<title>CarterasModule&#45;&gt;CarterasListaComponent </title>
<path fill="none" stroke="#000000" stroke-dasharray="5,2" d="M546,-263.2228C546,-263.2228 546,-284.7269 546,-284.7269"/>
<polygon fill="#000000" stroke="#000000" points="542.5001,-284.7269 546,-294.7269 549.5001,-284.727 542.5001,-284.7269"/>
</g>
<!-- FavoritoComponent -->
<g id="node12" class="node">
<title>FavoritoComponent</title>
<polygon fill="#ffffb3" stroke="#000000" points="1696.2716,-122 1567.7284,-122 1567.7284,-86 1696.2716,-86 1696.2716,-122"/>
<text text-anchor="middle" x="1632" y="-99.8" font-family="Times,serif" font-size="14.00" fill="#000000">FavoritoComponent</text>
</g>
<!-- ComponentesReusablesModule -->
<g id="node13" class="node">
<title>ComponentesReusablesModule</title>
<polygon fill="#8dd3c7" stroke="#000000" points="1728.8018,-198 1725.8018,-202 1704.8018,-202 1701.8018,-198 1535.1982,-198 1535.1982,-162 1728.8018,-162 1728.8018,-198"/>
<text text-anchor="middle" x="1632" y="-175.8" font-family="Times,serif" font-size="14.00" fill="#000000">ComponentesReusablesModule</text>
</g>
<!-- FavoritoComponent&#45;&gt;ComponentesReusablesModule -->
<g id="edge11" class="edge">
<title>FavoritoComponent&#45;&gt;ComponentesReusablesModule</title>
<path fill="none" stroke="#000000" d="M1632,-122.0109C1632,-122.0109 1632,-151.855 1632,-151.855"/>
<polygon fill="#000000" stroke="#000000" points="1628.5001,-151.8549 1632,-161.855 1635.5001,-151.855 1628.5001,-151.8549"/>
</g>
<!-- FavoritoComponent  -->
<g id="node14" class="node">
<title>FavoritoComponent </title>
<polygon fill="#fb8072" stroke="#000000" points="1698.2717,-263 1565.7283,-263 1565.7283,-227 1698.2717,-227 1698.2717,-263"/>
<text text-anchor="middle" x="1632" y="-240.8" font-family="Times,serif" font-size="14.00" fill="#000000">FavoritoComponent </text>
</g>
<!-- ComponentesReusablesModule&#45;&gt;FavoritoComponent  -->
<g id="edge12" class="edge">
<title>ComponentesReusablesModule&#45;&gt;FavoritoComponent </title>
<path fill="none" stroke="#000000" stroke-dasharray="5,2" d="M1632,-198.1061C1632,-198.1061 1632,-216.991 1632,-216.991"/>
<polygon fill="#000000" stroke="#000000" points="1628.5001,-216.9909 1632,-226.991 1635.5001,-216.991 1628.5001,-216.9909"/>
</g>
<!-- CabeceraComponent -->
<g id="node15" class="node">
<title>CabeceraComponent</title>
<polygon fill="#ffffb3" stroke="#000000" points="1502.9032,-122 1369.0968,-122 1369.0968,-86 1502.9032,-86 1502.9032,-122"/>
<text text-anchor="middle" x="1436" y="-99.8" font-family="Times,serif" font-size="14.00" fill="#000000">CabeceraComponent</text>
</g>
<!-- CabeceraComponent&#45;&gt;ComunModule -->
<g id="edge13" class="edge">
<title>CabeceraComponent&#45;&gt;ComunModule</title>
<path fill="none" stroke="#000000" d="M1436,-122.1944C1436,-130.2782 1436,-138 1436,-138 1436,-138 1023.0734,-138 1023.0734,-138 1023.0734,-138 1023.0734,-151.9445 1023.0734,-151.9445"/>
<polygon fill="#000000" stroke="#000000" points="1019.5735,-151.9444 1023.0734,-161.9445 1026.5735,-151.9445 1019.5735,-151.9444"/>
</g>
<!-- HomeComponent -->
<g id="node16" class="node">
<title>HomeComponent</title>
<polygon fill="#ffffb3" stroke="#000000" points="1351.5451,-122 1236.4549,-122 1236.4549,-86 1351.5451,-86 1351.5451,-122"/>
<text text-anchor="middle" x="1294" y="-99.8" font-family="Times,serif" font-size="14.00" fill="#000000">HomeComponent</text>
</g>
<!-- HomeComponent&#45;&gt;ComunModule -->
<g id="edge14" class="edge">
<title>HomeComponent&#45;&gt;ComunModule</title>
<path fill="none" stroke="#000000" d="M1294,-122.0579C1294,-126.4945 1294,-130 1294,-130 1294,-130 1006.5367,-130 1006.5367,-130 1006.5367,-130 1006.5367,-151.9489 1006.5367,-151.9489"/>
<polygon fill="#000000" stroke="#000000" points="1003.0368,-151.9488 1006.5367,-161.9489 1010.0368,-151.9489 1003.0368,-151.9488"/>
</g>
<!-- NoDisponibleComponent -->
<g id="node17" class="node">
<title>NoDisponibleComponent</title>
<polygon fill="#ffffb3" stroke="#000000" points="1217.8766,-122 1058.1234,-122 1058.1234,-86 1217.8766,-86 1217.8766,-122"/>
<text text-anchor="middle" x="1138" y="-99.8" font-family="Times,serif" font-size="14.00" fill="#000000">NoDisponibleComponent</text>
</g>
<!-- NoDisponibleComponent&#45;&gt;ComunModule -->
<g id="edge15" class="edge">
<title>NoDisponibleComponent&#45;&gt;ComunModule</title>
<path fill="none" stroke="#000000" d="M1058.0617,-104C1052.6116,-104 1049.2251,-104 1049.2251,-104 1049.2251,-104 1049.2251,-180 1049.2251,-180 1049.2251,-180 1048.3512,-180 1048.3512,-180"/>
<polygon fill="#000000" stroke="#000000" points="1050.4863,-176.5001 1040.4862,-180 1050.4862,-183.5001 1050.4863,-176.5001"/>
</g>
<!-- PieComponent -->
<g id="node18" class="node">
<title>PieComponent</title>
<polygon fill="#ffffb3" stroke="#000000" points="1039.7204,-122 940.2796,-122 940.2796,-86 1039.7204,-86 1039.7204,-122"/>
<text text-anchor="middle" x="990" y="-99.8" font-family="Times,serif" font-size="14.00" fill="#000000">PieComponent</text>
</g>
<!-- PieComponent&#45;&gt;ComunModule -->
<g id="edge16" class="edge">
<title>PieComponent&#45;&gt;ComunModule</title>
<path fill="none" stroke="#000000" d="M990,-122.0109C990,-122.0109 990,-151.855 990,-151.855"/>
<polygon fill="#000000" stroke="#000000" points="986.5001,-151.8549 990,-161.855 993.5001,-151.855 986.5001,-151.8549"/>
</g>
</g>
</svg>
